<svg xmlns="http://www.w3.org/2000/svg">
  <symbol id="firsthome-logo" viewBox="0 0 64 64">
    <defs>
      <linearGradient id="firsthome-logo-bg" x1="10" x2="54" y1="8" y2="58" gradientUnits="userSpaceOnUse">
        <stop offset="0" stop-color="#1D4ED8"/>
        <stop offset="0.55" stop-color="#0F766E"/>
        <stop offset="1" stop-color="#F59E0B"/>
      </linearGradient>
      <linearGradient id="firsthome-logo-needle" x1="21" x2="45" y1="47" y2="17" gradientUnits="userSpaceOnUse">
        <stop offset="0" stop-color="#FDE68A"/>
        <stop offset="1" stop-color="#FFFFFF"/>
      </linearGradient>
    </defs>
    <rect width="64" height="64" rx="14" fill="url(#firsthome-logo-bg)"/>
    <circle cx="32" cy="32" r="21" fill="#FFFFFF" opacity="0.16"/>
    <path fill="#FFFFFF" d="M15.5 30.2 32 16.1l16.5 14.1-3.7 4.3-3.1-2.7v17.1H22.3V31.8l-3.1 2.7-3.7-4.3Z"/>
    <path fill="#0F766E" d="M27 38.2c0-2.8 2.2-5 5-5s5 2.2 5 5v10.7H27V38.2Z"/>
    <path fill="#0B1220" opacity="0.18" d="M21.9 50.5h20.2a2 2 0 0 0 2-2V31.9l-12.1-10.4-12.1 10.4v16.6a2 2 0 0 0 2 2Z"/>
    <path fill="url(#firsthome-logo-needle)" d="m43.7 18.9-6 22.1a2 2 0 0 1-1.4 1.4l-16 4.4 6.1-15.9a2 2 0 0 1 1.3-1.2l16-10.8Z"/>
    <path fill="#1D4ED8" d="m32.1 31.4 4.2 4.2-9.7 4.4 5.5-8.6Z"/>
    <circle cx="32" cy="32" r="3.2" fill="#FFFFFF"/>
  </symbol>
  <symbol id="firsthome-house" viewBox="0 0 24 24">
    <path fill="currentColor" d="M3 10.7 12 3l9 7.7-1.7 2-1.8-1.6V21H6.5v-9.9l-1.8 1.6-1.7-2ZM9 18.5h6v-6a3 3 0 0 0-6 0v6Z"/>
  </symbol>
  <symbol id="firsthome-compass" viewBox="0 0 24 24">
    <path fill="currentColor" d="M19.8 4.2 16 17.9a1.2 1.2 0 0 1-.8.8L4.2 19.8l4.4-10.9c.1-.3.3-.5.6-.6L19.8 4.2Zm-8.5 7.1-2.1 5.1 5.2-2.1-3.1-3Z"/>
  </symbol>
  <symbol id="firsthome-check" viewBox="0 0 24 24">
    <path fill="currentColor" d="m9.7 16.9-5-5 1.8-1.8 3.2 3.2 7.8-7.8 1.8 1.8-9.6 9.6Z"/>
  </symbol>
</svg>
